<svg width="18" height="18" viewBox="0 0 18 18" fill="none" xmlns="http://www.w3.org/2000/svg">
<path opacity="0.8" d="M7.80001 0C7.46864 0 7.20001 0.268629 7.20001 0.6V8.8C7.20001 9.90457 8.09544 10.8 9.20001 10.8H17.4C17.7314 10.8 18 10.5314 18 10.2C18 7.49479 16.9254 4.90038 15.0125 2.98751C13.0996 1.07464 10.5052 0 7.80001 0Z" fill="#617D79"/>
<g opacity="0.8">
<path d="M15.0005 13.2021C15.2492 12.6062 14.7716 12 14.1259 12H6.99999C6.4477 12 5.99999 11.5523 5.99999 11V3.87413C5.99999 3.22842 5.39384 2.75084 4.79796 2.99954C3.9145 3.36828 3.10303 3.89794 2.40653 4.56516C1.40412 5.52541 0.676139 6.73577 0.297709 8.07132C-0.0807218 9.40686 -0.0958865 10.8192 0.25378 12.1626C0.603446 13.5059 1.30527 14.7316 2.28683 15.7132C3.26838 16.6947 4.49409 17.3966 5.83745 17.7462C7.18081 18.0959 8.59315 18.0807 9.9287 17.7023C11.2642 17.3239 12.4746 16.5959 13.4348 15.5935C14.1021 14.897 14.6317 14.0855 15.0005 13.2021Z" fill="#617D79"/>
</g>
</svg>
