<svg width="18" height="18" viewBox="0 0 18 18" fill="none" xmlns="http://www.w3.org/2000/svg">
<path opacity="0.8" d="M9.00004 1.20115C8.44036 1.18777 7.88365 1.28644 7.36267 1.49138C6.84168 1.69631 6.36694 2.00336 5.96637 2.39447C5.5658 2.78558 5.24748 3.25285 5.03015 3.76878C4.81282 4.28472 4.70087 4.83891 4.70087 5.39875C4.70087 5.95859 4.81282 6.51278 5.03015 7.02872C5.24748 7.54466 5.5658 8.01192 5.96637 8.40303C6.36694 8.79414 6.84168 9.10119 7.36267 9.30612C7.88365 9.51106 8.44036 9.60973 9.00004 9.59635C9.55973 9.60973 10.1164 9.51106 10.6374 9.30612C11.1584 9.10119 11.6331 8.79414 12.0337 8.40303C12.4343 8.01192 12.7526 7.54466 12.9699 7.02872C13.1873 6.51278 13.2992 5.95859 13.2992 5.39875C13.2992 4.83891 13.1873 4.28472 12.9699 3.76878C12.7526 3.25285 12.4343 2.78558 12.0337 2.39447C11.6331 2.00336 11.1584 1.69631 10.6374 1.49138C10.1164 1.28644 9.55973 1.18777 9.00004 1.20115V1.20115Z" fill="#617D79"/>
<path opacity="0.8" d="M6.60002 10.7927C5.48612 10.7927 4.41783 11.2352 3.63018 12.0229C2.84252 12.8105 2.40002 13.8788 2.40002 14.9927V14.9927C2.40002 16.6476 3.74156 17.9891 5.39642 17.9891H12.6036C14.2585 17.9891 15.6 16.6476 15.6 14.9927V14.9927C15.6 13.8788 15.1575 12.8105 14.3699 12.0229C13.5822 11.2352 12.5139 10.7927 11.4 10.7927H6.60002Z" fill="#617D79"/>
</svg>
